<mxfile host="app.diagrams.net" modified="2021-02-13T00:54:34.296Z" agent="5.0 (Windows NT 10.0; Win64; x64) AppleWebKit/537.36 (KHTML, like Gecko) Chrome/85.0.4183.102 Safari/537.36" etag="9vAhG3og_J7wFxWqwhwy" version="14.3.1" type="github">
  <diagram id="tjm02w94kXSYn7uwMTQH" name="Page-1">
    <mxGraphModel dx="2574" dy="1404" grid="1" gridSize="10" guides="1" tooltips="1" connect="1" arrows="1" fold="1" page="1" pageScale="1" pageWidth="850" pageHeight="1100" math="0" shadow="0">
      <root>
        <mxCell id="0" />
        <mxCell id="1" parent="0" />
        <mxCell id="Fcjf_uLkhxQYQOjqJBQi-1" style="edgeStyle=orthogonalEdgeStyle;rounded=0;orthogonalLoop=1;jettySize=auto;html=1;entryX=0;entryY=0.25;entryDx=0;entryDy=0;" edge="1" parent="1" source="Fcjf_uLkhxQYQOjqJBQi-2" target="Fcjf_uLkhxQYQOjqJBQi-13">
          <mxGeometry relative="1" as="geometry">
            <mxPoint x="310" y="482" as="targetPoint" />
          </mxGeometry>
        </mxCell>
        <mxCell id="Fcjf_uLkhxQYQOjqJBQi-2" value="" style="outlineConnect=0;fontColor=#232F3E;gradientColor=none;fillColor=#116D5B;strokeColor=none;dashed=0;verticalLabelPosition=bottom;verticalAlign=top;align=center;html=1;fontSize=12;fontStyle=0;aspect=fixed;shape=mxgraph.aws4.transfer_for_sftp_resource;" vertex="1" parent="1">
          <mxGeometry x="90" y="290" width="76" height="78" as="geometry" />
        </mxCell>
        <mxCell id="Fcjf_uLkhxQYQOjqJBQi-3" style="edgeStyle=orthogonalEdgeStyle;rounded=0;orthogonalLoop=1;jettySize=auto;html=1;exitX=1;exitY=0.5;exitDx=0;exitDy=0;" edge="1" parent="1" source="Fcjf_uLkhxQYQOjqJBQi-4" target="Fcjf_uLkhxQYQOjqJBQi-13">
          <mxGeometry relative="1" as="geometry" />
        </mxCell>
        <mxCell id="Fcjf_uLkhxQYQOjqJBQi-4" value="" style="shape=image;html=1;verticalAlign=top;verticalLabelPosition=bottom;labelBackgroundColor=#ffffff;imageAspect=0;aspect=fixed;image=https://cdn2.iconfinder.com/data/icons/amazon-aws-stencils/100/Storage__Content_Delivery_Amazon_S3_Bucket_with_Objects-128.png" vertex="1" parent="1">
          <mxGeometry x="64" y="390" width="128" height="128" as="geometry" />
        </mxCell>
        <mxCell id="Fcjf_uLkhxQYQOjqJBQi-5" style="edgeStyle=orthogonalEdgeStyle;rounded=0;orthogonalLoop=1;jettySize=auto;html=1;exitX=1;exitY=0.5;exitDx=0;exitDy=0;entryX=0;entryY=1;entryDx=0;entryDy=0;" edge="1" parent="1" source="Fcjf_uLkhxQYQOjqJBQi-15" target="Fcjf_uLkhxQYQOjqJBQi-13">
          <mxGeometry relative="1" as="geometry" />
        </mxCell>
        <mxCell id="Fcjf_uLkhxQYQOjqJBQi-21" style="edgeStyle=orthogonalEdgeStyle;rounded=0;orthogonalLoop=1;jettySize=auto;html=1;exitX=1;exitY=0.5;exitDx=0;exitDy=0;" edge="1" parent="1" source="Fcjf_uLkhxQYQOjqJBQi-6" target="Fcjf_uLkhxQYQOjqJBQi-15">
          <mxGeometry relative="1" as="geometry" />
        </mxCell>
        <mxCell id="Fcjf_uLkhxQYQOjqJBQi-6" value="Aurora / RDBMS&amp;nbsp;" style="shape=image;html=1;verticalAlign=top;verticalLabelPosition=bottom;labelBackgroundColor=#ffffff;imageAspect=0;aspect=fixed;image=https://cdn4.iconfinder.com/data/icons/imod/128/Harware/iDatabase.png" vertex="1" parent="1">
          <mxGeometry x="93" y="650" width="90" height="90" as="geometry" />
        </mxCell>
        <mxCell id="Fcjf_uLkhxQYQOjqJBQi-7" style="edgeStyle=orthogonalEdgeStyle;rounded=0;orthogonalLoop=1;jettySize=auto;html=1;entryX=0.203;entryY=0.983;entryDx=0;entryDy=0;entryPerimeter=0;" edge="1" parent="1" source="Fcjf_uLkhxQYQOjqJBQi-8" target="Fcjf_uLkhxQYQOjqJBQi-13">
          <mxGeometry relative="1" as="geometry" />
        </mxCell>
        <mxCell id="Fcjf_uLkhxQYQOjqJBQi-8" value="" style="outlineConnect=0;fontColor=#232F3E;gradientColor=none;fillColor=#BC1356;strokeColor=none;dashed=0;verticalLabelPosition=bottom;verticalAlign=top;align=center;html=1;fontSize=12;fontStyle=0;aspect=fixed;pointerEvents=1;shape=mxgraph.aws4.http_notification;" vertex="1" parent="1">
          <mxGeometry x="100" y="780" width="80" height="80" as="geometry" />
        </mxCell>
        <mxCell id="Fcjf_uLkhxQYQOjqJBQi-9" style="edgeStyle=orthogonalEdgeStyle;rounded=0;orthogonalLoop=1;jettySize=auto;html=1;exitX=1;exitY=0.5;exitDx=0;exitDy=0;entryX=0;entryY=0.75;entryDx=0;entryDy=0;" edge="1" parent="1" source="Fcjf_uLkhxQYQOjqJBQi-10" target="Fcjf_uLkhxQYQOjqJBQi-13">
          <mxGeometry relative="1" as="geometry" />
        </mxCell>
        <mxCell id="Fcjf_uLkhxQYQOjqJBQi-10" value="" style="shape=image;imageAspect=0;aspect=fixed;verticalLabelPosition=bottom;verticalAlign=top;image=data:image/svg+xml,PHN2ZyB4bWxucz0iaHR0cDovL3d3dy53My5vcmcvMjAwMC9zdmciIHhtbG5zOnhsaW5rPSJodHRwOi8vd3d3LnczLm9yZy8xOTk5L3hsaW5rIiB3aWR0aD0iMjcyLjE2NDAwMTQ2NDg0Mzc1IiBoZWlnaHQ9IjE5MC41IiB2aWV3Qm94PSIwIDAuNSAyNzIuMTY0MDAxNDY0ODQzNzUgMTkwLjUiPjxkZWZzPjxwYXRoIGlkPSJhIiBkPSJNLjA2LjVoMjcyLjEwNHYxOTAuNDRILjA2eiIvPjwvZGVmcz48ZyBmaWxsPSJub25lIiBmaWxsLXJ1bGU9ImV2ZW5vZGQiPjxtYXNrIGlkPSJiIiBmaWxsPSIjZmZmIj48dXNlIHhsaW5rOmhyZWY9IiNhIi8+PC9tYXNrPjxwYXRoIGQ9Ik0xMTMuMjU4IDIxLjI3N2M4Ljc3Ny05LjE0NCAyMC45OTgtMTQuODE4IDM0LjUxMy0xNC44MTggMTcuOTY1IDAgMzMuNjQxIDEwLjAxOCA0MS45ODYgMjQuODkyYTU4IDU4IDAgMCAxIDIzLjczMy01LjA0NmMzMi40MDQgMCA1OC42NzQgMjYuNDk5IDU4LjY3NCA1OS4xODlzLTI2LjI3IDU5LjE5LTU4LjY3NCA1OS4xOWMtMy45NTcgMC03LjgyMS0uMzk4LTExLjU1OS0xLjE1Mi03LjM0OSAxMy4xMDktMjEuMzU5IDIxLjk2OC0zNy40MzUgMjEuOTY4YTQyLjY2OCA0Mi42NjggMCAwIDEtMTguNzY1LTQuMzE5QzEzOC4yODEgMTc4LjcxIDEyMC45MTcgMTkxIDEwMC42ODYgMTkxYy0yMS4wNzMgMC0zOS4wMzMtMTMuMzMyLTQ1LjkyMi0zMi4wM2E0NS4xMTcgNDUuMTE3IDAgMCAxLTkuMzM4Ljk3MkMyMC4zMzcgMTU5Ljk0MiAwIDEzOS4zOTIgMCAxMTQuMDQzYzAtMTYuOTkgOS4xMzYtMzEuODIzIDIyLjcxNS0zOS43NThhNTIuNTUgNTIuNTUgMCAwIDEtNC4zNDktMjAuOTk0QzE4LjM2NiAyNC4xMzYgNDIuMDMzLjUgNzEuMjI3LjVjMTcuMTQgMCAzMi4zNzMgOC4xNDggNDIuMDMxIDIwLjc3NyIgZmlsbD0iIzAwQTFFMCIgbWFzaz0idXJsKCNiKSIvPjxwYXRoIGQ9Ik0zOS40MiA5OS4yODljLS4xNzEuNDQ2LjA2MS41MzkuMTE2LjYxOC41MTEuMzcgMS4wMy42MzggMS41NTQuOTM5IDIuNzc1IDEuNDY5IDUuMzk4IDEuOSA4LjEzOCAxLjkgNS41ODMgMCA5LjA1MS0yLjk2OCA5LjA1MS03Ljc0OHYtLjA5NGMwLTQuNDItMy45MTUtNi4wMjYtNy41ODQtNy4xODVsLS40NzktLjE1NWMtMi43NjctLjg5OC01LjE1NS0xLjY3NS01LjE1NS0zLjQ5OHYtLjA5M2MwLTEuNTYxIDEuMzk2LTIuNzA4IDMuNTU5LTIuNzA4IDIuNDA1IDAgNS4yNTUuNzk5IDcuMDkzIDEuODE0IDAgMCAuNTQyLjM1LjczOS0uMTczLjEwNy0uMjgzIDEuMDM2LTIuNzg1IDEuMTM1LTMuMDU2LjEwNi0uMjkzLS4wOC0uNTE0LS4yNzEtLjYyOC0yLjA5OS0xLjI3OS00Ljk5OC0yLjE0OS03Ljk5OS0yLjE0OWwtLjU1Ny4wMDJjLTUuMTEgMC04LjY3OCAzLjA5LTguNjc4IDcuNTEydi4wOTVjMCA0LjY2IDMuOTM2IDYuMTc1IDcuNjIzIDcuMjI4bC41OTIuMTg0YzIuNjg1LjgyNCA1LjAwNCAxLjUzNiA1LjAwNCAzLjQyNXYuMDk0YzAgMS43My0xLjUwNyAzLjAxNS0zLjkzNCAzLjAxNS0uOTQxIDAtMy45NDUtLjAxNi03LjE5MS0yLjA2OS0uMzkzLS4yMjktLjYxNy0uMzk0LS45Mi0uNTc5LS4xNi0uMDk3LS41Ni0uMjcyLS43MzQuMjUybC0xLjEwMiAzLjA1N204MS43MyAwYy0uMTcxLjQ0Ni4wNjEuNTM5LjExOC42MTguNTA5LjM3IDEuMDI5LjYzOCAxLjU1Mi45MzkgMi43NzYgMS40NjkgNS4zOTkgMS45IDguMTM4IDEuOSA1LjU4MyAwIDkuMDUyLTIuOTY4IDkuMDUyLTcuNzQ4di0uMDk0YzAtNC40Mi0zLjkxNC02LjAyNi03LjU4NC03LjE4NWwtLjQ3OS0uMTU1Yy0yLjc2Ny0uODk4LTUuMTU2LTEuNjc1LTUuMTU2LTMuNDk4di0uMDkzYzAtMS41NjEgMS4zOTctMi43MDggMy41NjEtMi43MDggMi40MDQgMCA1LjI1My43OTkgNy4wOTEgMS44MTQgMCAwIC41NDIuMzUuNzQtLjE3My4xMDYtLjI4MyAxLjAzNi0yLjc4NSAxLjEzNC0zLjA1Ni4xMDctLjI5My0uMDgtLjUxNC0uMjctLjYyOC0yLjEtMS4yNzktNC45OTgtMi4xNDktNy45OTktMi4xNDlsLS41NTguMDAyYy01LjEwOSAwLTguNjc3IDMuMDktOC42NzcgNy41MTJ2LjA5NWMwIDQuNjYgMy45MzUgNi4xNzUgNy42MjMgNy4yMjhsLjU5MS4xODRjMi42ODYuODI0IDUuMDA1IDEuNTM2IDUuMDA1IDMuNDI1di4wOTRjMCAxLjczLTEuNTA4IDMuMDE1LTMuOTMzIDMuMDE1LS45NDMgMC0zLjk0Ny0uMDE2LTcuMTkyLTIuMDY5LS4zOTMtLjIyOS0uNjIzLS4zODctLjkyMS0uNTc5LS4xMDEtLjA2NC0uNTcyLS4yNDgtLjczMy4yNTJsLTEuMTAzIDMuMDU3bTU1Ljc5NS05LjM2NGMwIDIuNy0uNTA0IDQuODMyLTEuNDk0IDYuMzM1LS45ODQgMS40OS0yLjQ2OSAyLjIxNS00LjU0IDIuMjE1cy0zLjU0OC0uNzI0LTQuNTE2LTIuMjEzYy0uOTc3LTEuNTA0LTEuNDczLTMuNjM3LTEuNDczLTYuMzM3IDAtMi42OTguNDk2LTQuODIzIDEuNDczLTYuMzExLjk2OC0xLjQ3NSAyLjQ0NS0yLjE5MSA0LjUxNi0yLjE5MXMzLjU1Ni43MTcgNC41NCAyLjE5MmMuOTkyIDEuNDg3IDEuNDk0IDMuNjEyIDEuNDk0IDYuMzFtNC42NjItNS4wMDdjLS40NTktMS41NDktMS4xNzItMi45MTItMi4xMjEtNC4wNDktLjk1MS0xLjE0LTIuMTU0LTIuMDU3LTMuNTgtMi43MjEtMS40MjQtLjY2NS0zLjEwNC0xLjAwMi00Ljk5NS0xLjAwMnMtMy41NzIuMzM3LTQuOTk3IDEuMDAyYy0xLjQyNC42NjQtMi42MjggMS41ODEtMy41NzkgMi43MjMtLjk0OCAxLjEzOS0xLjY2MyAyLjUtMi4xMiA0LjA0Ny0uNDU1IDEuNTM3LS42ODYgMy4yMjItLjY4NiA1LjAwNyAwIDEuNzg2LjIzMSAzLjQ3Mi42ODYgNS4wMDcuNDU3IDEuNTQ2IDEuMTcgMi45MDggMi4xMjEgNC4wNDkuOTUxIDEuMTQyIDIuMTU4IDIuMDUxIDMuNTggMi42OTkgMS40MjYuNjQ4IDMuMTA2Ljk3OCA0Ljk5NS45NzggMS44OSAwIDMuNTY4LS4zMyA0Ljk5My0uOTc4IDEuNDI0LS42NDggMi42MjktMS41NTcgMy41ODItMi42OTkuOTQ5LTEuMTM3IDEuNjYyLTIuNTAxIDIuMTIxLTQuMDQ5LjQ1NC0xLjUzOC42ODUtMy4yMjMuNjg1LTUuMDA3IDAtMS43ODMtLjIzMS0zLjQ2OS0uNjg1LTUuMDA3bTM4LjI2NyAxMi44MzRjLS4xNTMtLjQ1My0uNTk1LS4yODItLjU5NS0uMjgyLS42NzcuMjU5LTEuMzk3LjQ5OS0yLjE2Ny42MTktLjc3Ni4xMjItMS42MzUuMTgzLTIuNTU0LjE4My0yLjI1MyAwLTQuMDQ4LS42NzEtNS4zMjktMS45OTctMS4yODctMS4zMjctMi4wMS0zLjQ3MS0yLjAwMi02LjM3MS4wMDctMi42MzYuNjQ1LTQuNjIyIDEuNzg5LTYuMTM2IDEuMTM0LTEuNTA0IDIuODY2LTIuMjc2IDUuMTY5LTIuMjc2IDEuOTIzIDAgMy4zOS4yMjMgNC45MjcuNzA1IDAgMCAuMzY1LjE1OS41NC0uMzIyLjQwOS0xLjEzMy43MTEtMS45MzkgMS4xNDctMy4xODQuMTI0LS4zNTUtLjE4LS41MDUtLjI5MS0uNTQ4LS42MDQtLjIzNi0yLjAzMS0uNjIzLTMuMTA4LS43ODYtMS4wMDctLjE1NC0yLjE4NC0uMjM0LTMuNDk3LS4yMzQtMS45NTcgMC0zLjcwMi4zMzUtNS4xOTQuOTk5LTEuNDg5LjY2My0yLjc1MiAxLjU3OS0zLjc1MyAyLjcxOC0xLjAwMSAxLjE0MS0xLjc2MyAyLjUwNC0yLjI2NyA0LjA1LS41MDUgMS41MzgtLjc2IDMuMjI2LS43NiA1LjAxNiAwIDMuODY1IDEuMDQzIDYuOTg4IDMuMSA5LjI3NiAyLjA2NCAyLjI5NiA1LjE2IDMuNDYyIDkuMjAxIDMuNDYyIDIuMzg3IDAgNC44MzYtLjQ4MyA2LjYtMS4xNzcgMCAwIC4zMzYtLjE2Mi4xOS0uNTU0bC0xLjE0Ni0zLjE2MW04LjE1NC0xMC40MTZjLjIyMy0xLjUwMS42MzQtMi43NDggMS4yNzUtMy43MjIuOTY3LTEuNDc1IDIuNDM5LTIuMjg4IDQuNTEtMi4yODggMi4wNzIgMCAzLjQzNy44MTQgNC40MjEgMi4yODkuNjUuOTc1LjkzNCAyLjI3NCAxLjA0NSAzLjcyM2wtMTEuMjUxLS4wMDJ6bTE1LjY4OS0zLjI5N2MtLjM5Ny0xLjQ5NC0xLjM3NS0zLjAwMy0yLjAxOC0zLjY5My0xLjAxNS0xLjA5NC0yLjAwOS0xLjg2LTIuOTk2LTIuMjgzYTExLjUxIDExLjUxIDAgMCAwLTQuNTE3LS45MTdjLTEuOTY5IDAtMy43NTguMzMzLTUuMjA5IDEuMDEzLTEuNDUzLjY4Mi0yLjY3NCAxLjYxNC0zLjYzMSAyLjc3Mi0uOTU5IDEuMTU3LTEuNjc4IDIuNTM0LTIuMTM3IDQuMDk2LS40NiAxLjU1My0uNjkyIDMuMjQ2LS42OTIgNS4wMzQgMCAxLjgxOC4yNDEgMy41MTMuNzE1IDUuMDM3LjQ3OSAxLjUzNyAxLjI0OCAyLjg4NiAyLjI4NiA0LjAwOSAxLjAzNyAxLjEyNyAyLjM3MiAyLjAxMSAzLjk2NyAyLjYyNyAxLjU4Ny42MTUgMy41MTUuOTM0IDUuNzI2LjkyNyA0LjU1OC0uMDE1IDYuOTU1LTEuMDMxIDcuOTQ1LTEuNTc4LjE3NS0uMDk4LjM0LS4yNjcuMTM0LS43NTRsLTEuMDMyLTIuODg4Yy0uMTU4LS40MzEtLjU5NC0uMjc1LS41OTQtLjI3NS0xLjEzMS40MjItMi43MzIgMS4xNzUtNi40NzYgMS4xNjctMi40NDYtLjAwNC00LjI1OC0uNzI3LTUuMzk3LTEuODU2LTEuMTY1LTEuMTU1LTEuNzM3LTIuODUxLTEuODM0LTUuMjQ3bDE1Ljc3Mi4wMTJzLjQxNi0uMDA0LjQ1OS0uNDFjLjAxNy0uMTY4LjU0MS0zLjI0LS40NzEtNi43OTN6bS0xNDIuMDI4IDMuMjk3Yy4yMjMtMS41MDEuNjM1LTIuNzQ4IDEuMjc1LTMuNzIyLjk2OC0xLjQ3NSAyLjQzOC0yLjI4OCA0LjUxMS0yLjI4OCAyLjA3MiAwIDMuNDM3LjgxNCA0LjQyMSAyLjI4OS42NDkuOTc1LjkzMyAyLjI3NCAxLjA0NCAzLjcyM2wtMTEuMjUxLS4wMDJ6bTE1LjY4OS0zLjI5N2MtLjM5Ni0xLjQ5NC0xLjM3NS0zLjAwMy0yLjAxNy0zLjY5My0xLjAxNS0xLjA5NC0yLjAwOC0xLjg2LTIuOTk2LTIuMjgzYTExLjUyMiAxMS41MjIgMCAwIDAtNC41MTctLjkxN2MtMS45NjkgMC0zLjc1OC4zMzMtNS4yMDkgMS4wMTMtMS40NTMuNjgyLTIuNjc0IDEuNjE0LTMuNjMzIDIuNzcyLS45NTcgMS4xNTctMS42NzYgMi41MzQtMi4xMzcgNC4wOTYtLjQ1OSAxLjU1My0uNjkgMy4yNDYtLjY5IDUuMDM0IDAgMS44MTguMjM5IDMuNTEzLjcxNiA1LjAzNy40NzggMS41MzcgMS4yNDggMi44ODYgMi4yODQgNC4wMDkgMS4wMzggMS4xMjcgMi4zNzIgMi4wMTEgMy45NjcgMi42MjcgMS41ODguNjE1IDMuNTE0LjkzNCA1LjcyNy45MjcgNC41NTctLjAxNSA2Ljk1NS0xLjAzMSA3Ljk0NS0xLjU3OC4xNzQtLjA5OC4zNC0uMjY3LjEzMy0uNzU0bC0xLjAzMS0yLjg4OGMtLjE1OS0uNDMxLS41OTUtLjI3NS0uNTk1LS4yNzUtMS4xMy40MjItMi43MzEgMS4xNzUtNi40NzYgMS4xNjctMi40NDUtLjAwNC00LjI1OC0uNzI3LTUuMzk3LTEuODU2LTEuMTY0LTEuMTU1LTEuNzM3LTIuODUxLTEuODM0LTUuMjQ3bDE1Ljc3My4wMTJzLjQxNi0uMDA0LjQ1OS0uNDFjLjAxNy0uMTY4LjU0MS0zLjI0LS40NzItNi43OTN6TTY3LjU5MiA5Ny42NjZjLS42MTktLjQ5NC0uNzA1LS42MTUtLjkxLS45MzYtLjMxMy0uNDgzLS40NzMtMS4xNzEtLjQ3My0yLjA1MiAwLTEuMzg1LjQ2LTIuMzgzIDEuNDA4LTMuMDUzLS4wMS4wMDIgMS4zNi0xLjE4MiA0LjU3NS0xLjE0YTMxLjk4IDMxLjk4IDAgMCAxIDQuMjgzLjM2NXY3LjE3aC4wMDJzLTIuMDA1LjQzMS00LjI2Mi41NjdjLTMuMjA4LjE5My00LjYzMy0uOTI0LTQuNjIzLS45MjF6bTYuMjc3LTExLjA4NmMtLjY0LS4wNDctMS40NjktLjA3LTIuNDYzLS4wNy0xLjM1MSAwLTIuNjU4LjE2OC0zLjg4NS40OTgtMS4yMzIuMzMyLTIuMzQuODQ2LTMuMjkzIDEuNTI3YTcuNjMzIDcuNjMzIDAgMCAwLTIuMjg5IDIuNjAyYy0uNTU5IDEuMDQxLS44NDQgMi4yNjQtLjg0NCAzLjYzNSAwIDEuMzk5LjI0MyAyLjYxMS43MjMgMy42MDFhNi41NDMgNi41NDMgMCAwIDAgMi4wNTcgMi40N2MuODc3LjYzOCAxLjk1OSAxLjEwNiAzLjIxNCAxLjM5MiAxLjIzOS4yODMgMi42NDMuNDI2IDQuMTc3LjQyNiAxLjYyIDAgMy4yMzEtLjEzNiA0Ljc5Mi0uMzk5YTk1LjA2IDk1LjA2IDAgMCAwIDMuOTczLS43NzJjLjUyNi0uMTIxIDEuMTA2LS4yOCAxLjEwNi0uMjguMzktLjA5OS4zNi0uNTE2LjM2LS41MTZsLS4wMDktMTQuNDI2YzAtMy4xNjQtLjg0NC01LjUwOC0yLjUwNy02Ljk2NC0xLjY1NS0xLjQ0OS00LjA5Mi0yLjE4MS03LjI0NS0yLjE4MS0xLjE4NCAwLTMuMDg2LjE2LTQuMjI4LjM4OSAwIDAtMy40NDQuNjY4LTQuODYyIDEuNzc5IDAgMC0uMzEyLjE5Mi0uMTQyLjYyN2wxLjExNyAzYy4xMzkuMzg5LjUxOC4yNTYuNTE4LjI1NnMuMTE5LS4wNDcuMjU5LS4xM2MzLjAzNC0xLjY1IDYuODczLTEuNjAxIDYuODczLTEuNjAxIDEuNzA0IDAgMy4wMTcuMzQ1IDMuODk5IDEuMDIuODYxLjY2MSAxLjI5OCAxLjY1NiAxLjI5OCAzLjc1OXYuNjY3Yy0xLjM1My0uMTk2LTIuNTk5LS4zMDktMi41OTktLjMwOXptMTI3LjIzNS04LjEyN2EuNDI4LjQyOCAwIDAgMC0uMjM3LS41NjhjLS4yNjktLjEwMi0xLjYxLS4zODUtMi42NDQtLjQ0OS0xLjk4My0uMTI0LTMuMDgyLjIxLTQuMDY4LjY1NC0uOTc4LjQ0MS0yLjA2MSAxLjE1NC0yLjY2NSAxLjk2N2wtLjAwMi0xLjkyNGMwLS4yNjQtLjE4Ny0uNDc3LS40NTMtLjQ3N2gtNC4wNDRjLS4yNjIgMC0uNDUyLjIxMy0uNDUyLjQ3N3YyMy41MzJhLjQ4LjQ4IDAgMCAwIC40NzkuNDc5aDQuMTQ1YS40NzkuNDc5IDAgMCAwIC40NzgtLjQ3OVY4OS45MWMwLTEuNTc5LjE3NC0zLjE1Mi41MjEtNC4xNDEuMzQyLS45NzkuODA3LTEuNzU5IDEuMzgzLTIuMzJhNC43ODYgNC43ODYgMCAwIDEgMS45NDgtMS4xNzIgNy42ODEgNy42ODEgMCAwIDEgMi4xMTYtLjI5OGMuODI1IDAgMS43MzMuMjEyIDEuNzMzLjIxMi4zMDQuMDM0LjQ3My0uMTUyLjU3Ni0uNDI2LjI3MS0uNzIxIDEuMDM5LTIuODgyIDEuMTg2LTMuMzEyIiBmaWxsPSIjRkZGRkZFIi8+PHBhdGggZD0iTTE2Mi4yMDEgNjcuNTQ4YTEzLjI1OCAxMy4yNTggMCAwIDAtMS41NTktLjM3IDEyLjIxNyAxMi4yMTcgMCAwIDAtMi4xNDQtLjE2NmMtMi44NTMgMC01LjEwMi44MDYtNi42ODEgMi4zOTgtMS41NjggMS41OC0yLjYzNSAzLjk4Ny0zLjE3IDcuMTU0bC0uMTkzIDEuMDY5aC0zLjU4MXMtLjQzNy0uMDE4LS41MjkuNDU5bC0uNTg4IDMuMjhjLS4wNDEuMzE0LjA5NC41MS41MTQuNTA4aDMuNDg2bC0zLjUzNyAxOS43NDNjLS4yNzcgMS41OS0uNTk0IDIuODk4LS45NDUgMy44ODktLjM0Ni45NzgtLjY4NCAxLjcxMS0xLjEgMi4yNDMtLjQwMy41MTUtLjc4NS44OTQtMS40NDQgMS4xMTUtLjU0NC4xODMtMS4xNy4yNjctMS44NTYuMjY3LS4zODIgMC0uODktLjA2NC0xLjI2NS0uMTM5LS4zNzUtLjA3NC0uNTctLjE1OC0uODUxLS4yNzYgMCAwLS40MDktLjE1Ni0uNTcuMjU0LS4xMzEuMzM1LTEuMDYgMi44OS0xLjE3IDMuMjA2LS4xMTIuMzEyLjA0NS41NTguMjQzLjYyOS40NjQuMTY2LjgwOS4yNzIgMS40NDEuNDIxLjg3OC4yMDcgMS42MTguMjIgMi4zMTEuMjIgMS40NTIgMCAyLjc3NS0uMjA0IDMuODcyLS42IDEuMTA0LS4zOTkgMi4wNjUtMS4wOTQgMi45MTUtMi4wMzUuOTE5LTEuMDE1IDEuNDk3LTIuMDc4IDIuMDUtMy41MjguNTQ3LTEuNDM3IDEuMDEzLTMuMjIxIDEuMzg2LTUuM2wzLjU1NC0yMC4xMDloNS4xOTZzLjQzOC4wMTYuNTI5LS40NTlsLjU4OC0zLjI4Yy4wNDEtLjMxNC0uMDkzLS41MS0uNTE1LS41MDhoLTUuMDQzYy4wMjUtLjExNC4yNTQtMS44ODguODMzLTMuNTU4LjI0Ny0uNzEzLjcxMi0xLjI4OCAxLjEwNi0xLjY4M2EzLjI3MyAzLjI3MyAwIDAgMSAxLjMyMS0uODIyIDUuNDggNS40OCAwIDAgMSAxLjY5My0uMjQ0Yy40NzUgMCAuOTQxLjA1NyAxLjI5Ni4xMzEuNDg5LjEwNC42NzkuMTU5LjgwNy4xOTcuNTE0LjE1Ny41ODMuMDA1LjY4NC0uMjQ0bDEuMjA2LTMuMzEyYy4xMjQtLjM1Ni0uMTc4LS41MDYtLjI5LS41NW0tNzAuNDc0IDM0LjExN2MwIC4yNjQtLjE4OC40NzktLjQ1Mi40NzloLTQuMTgzYy0uMjY1IDAtLjQ1My0uMjE1LS40NTMtLjQ3OVY2Ny45OTdjMC0uMjYzLjE4OC0uNDc2LjQ1My0uNDc2aDQuMTgzYy4yNjQgMCAuNDUyLjIxMy40NTIuNDc2djMzLjY2OCIgZmlsbD0iI0ZGRkZGRSIvPjwvZz48L3N2Zz4=;" vertex="1" parent="1">
          <mxGeometry x="76.65" y="538" width="115.35" height="81" as="geometry" />
        </mxCell>
        <mxCell id="Fcjf_uLkhxQYQOjqJBQi-11" style="edgeStyle=orthogonalEdgeStyle;rounded=0;orthogonalLoop=1;jettySize=auto;html=1;entryX=0;entryY=0;entryDx=0;entryDy=0;" edge="1" parent="1" source="Fcjf_uLkhxQYQOjqJBQi-12" target="Fcjf_uLkhxQYQOjqJBQi-13">
          <mxGeometry relative="1" as="geometry" />
        </mxCell>
        <mxCell id="Fcjf_uLkhxQYQOjqJBQi-12" value="NSF/EFS File" style="aspect=fixed;html=1;points=[];align=center;image;fontSize=12;image=img/lib/azure2/general/Files.svg;" vertex="1" parent="1">
          <mxGeometry x="96" y="168" width="64" height="70" as="geometry" />
        </mxCell>
        <mxCell id="Fcjf_uLkhxQYQOjqJBQi-13" value="Raw Bucket" style="shape=image;html=1;verticalAlign=top;verticalLabelPosition=bottom;labelBackgroundColor=#ffffff;imageAspect=0;aspect=fixed;image=https://cdn2.iconfinder.com/data/icons/amazon-aws-stencils/100/Storage__Content_Delivery_Amazon_S3_Bucket_with_Objects-128.png" vertex="1" parent="1">
          <mxGeometry x="685" y="440" width="128" height="128" as="geometry" />
        </mxCell>
        <mxCell id="Fcjf_uLkhxQYQOjqJBQi-15" value="Field Level Encryption" style="outlineConnect=0;fontColor=#232F3E;gradientColor=none;fillColor=#C7131F;strokeColor=none;dashed=0;verticalLabelPosition=bottom;verticalAlign=top;align=center;html=1;fontSize=12;fontStyle=0;aspect=fixed;pointerEvents=1;shape=mxgraph.aws4.data_encryption_key;" vertex="1" parent="1">
          <mxGeometry x="250" y="671" width="38.15" height="48" as="geometry" />
        </mxCell>
        <mxCell id="Fcjf_uLkhxQYQOjqJBQi-17" value="" style="outlineConnect=0;fontColor=#232F3E;gradientColor=none;fillColor=#C7131F;strokeColor=none;dashed=0;verticalLabelPosition=bottom;verticalAlign=top;align=center;html=1;fontSize=12;fontStyle=0;aspect=fixed;pointerEvents=1;shape=mxgraph.aws4.data_encryption_key;" vertex="1" parent="1">
          <mxGeometry x="230" y="554.5" width="38.15" height="48" as="geometry" />
        </mxCell>
        <mxCell id="Fcjf_uLkhxQYQOjqJBQi-18" value="Pipeline" style="rounded=1;whiteSpace=wrap;html=1;fillColor=#dae8fc;strokeColor=#6c8ebf;" vertex="1" parent="1">
          <mxGeometry x="23" y="890" width="802" height="60" as="geometry" />
        </mxCell>
        <mxCell id="Fcjf_uLkhxQYQOjqJBQi-19" value="Metadata Store" style="outlineConnect=0;fontColor=#232F3E;gradientColor=none;fillColor=#3334B9;strokeColor=none;dashed=0;verticalLabelPosition=bottom;verticalAlign=top;align=center;html=1;fontSize=12;fontStyle=0;aspect=fixed;pointerEvents=1;shape=mxgraph.aws4.rds_postgresql_instance;" vertex="1" parent="1">
          <mxGeometry x="735" y="960" width="78" height="78" as="geometry" />
        </mxCell>
      </root>
    </mxGraphModel>
  </diagram>
</mxfile>
